<svg xmlns="http://www.w3.org/2000/svg" xmlns:xlink="http://www.w3.org/1999/xlink" width="167" zoomAndPan="magnify" viewBox="0 0 125.25 123.749996" height="165" preserveAspectRatio="xMidYMid meet" version="1.0"><defs><clipPath id="f84a59c0eb"><path d="M 39.894531 39.621094 L 83.882812 39.621094 L 83.882812 83.605469 L 39.894531 83.605469 Z M 39.894531 39.621094 " clip-rule="nonzero"/></clipPath></defs><g clip-path="url(#f84a59c0eb)"><path fill="#000000" d="M 61.886719 83.605469 C 49.757812 83.605469 39.890625 73.738281 39.890625 61.609375 C 39.890625 49.484375 49.757812 39.617188 61.886719 39.617188 C 74.011719 39.617188 83.878906 49.484375 83.878906 61.609375 C 83.878906 73.738281 74.011719 83.601562 61.886719 83.601562 Z M 61.886719 41.710938 C 50.914062 41.710938 41.984375 50.636719 41.984375 61.609375 C 41.984375 72.582031 50.914062 81.511719 61.886719 81.511719 C 72.855469 81.511719 81.785156 72.582031 81.785156 61.609375 C 81.785156 50.636719 72.855469 41.710938 61.886719 41.710938 Z M 61.886719 41.710938 " fill-opacity="1" fill-rule="nonzero"/></g><path fill="#000000" d="M 65.957031 75.539062 L 52.027344 61.609375 L 65.957031 47.679688 L 67.4375 49.160156 L 54.988281 61.609375 L 67.4375 74.058594 Z M 65.957031 75.539062 " fill-opacity="1" fill-rule="nonzero"/></svg>