<svg xmlns="http://www.w3.org/2000/svg" xmlns:xlink="http://www.w3.org/1999/xlink" width="167" zoomAndPan="magnify" viewBox="0 0 125.25 123.749996" height="165" preserveAspectRatio="xMidYMid meet" version="1.0"><path fill="#000000" d="M 78.195312 57.929688 L 48.386719 57.929688 L 58.050781 48.269531 C 58.503906 47.8125 58.503906 47.078125 58.050781 46.621094 C 57.59375 46.167969 56.859375 46.167969 56.402344 46.621094 L 44.753906 58.269531 C 44.296875 58.726562 44.296875 59.460938 44.753906 59.917969 L 56.402344 71.566406 C 56.628906 71.792969 56.925781 71.910156 57.226562 71.910156 C 57.523438 71.910156 57.820312 71.792969 58.050781 71.566406 C 58.503906 71.113281 58.503906 70.375 58.050781 69.917969 L 48.386719 60.257812 L 78.195312 60.257812 C 78.839844 60.257812 79.359375 59.738281 79.359375 59.09375 C 79.359375 58.453125 78.839844 57.929688 78.195312 57.929688 Z M 78.195312 57.929688 " fill-opacity="1" fill-rule="nonzero"/><path fill="#000000" d="M 61.886719 29.972656 C 45.828125 29.972656 32.761719 43.035156 32.761719 59.09375 C 32.761719 75.152344 45.828125 88.21875 61.886719 88.21875 C 77.941406 88.21875 91.007812 75.152344 91.007812 59.09375 C 91.007812 43.035156 77.941406 29.972656 61.886719 29.972656 Z M 61.886719 85.886719 C 47.113281 85.886719 35.09375 73.867188 35.09375 59.09375 C 35.09375 44.320312 47.113281 32.300781 61.886719 32.300781 C 76.660156 32.300781 88.679688 44.320312 88.679688 59.09375 C 88.679688 73.867188 76.660156 85.886719 61.886719 85.886719 Z M 61.886719 85.886719 " fill-opacity="1" fill-rule="nonzero"/></svg>