<svg xmlns="http://www.w3.org/2000/svg" xmlns:xlink="http://www.w3.org/1999/xlink" width="60" zoomAndPan="magnify" viewBox="0 0 45 37.5" height="50" preserveAspectRatio="xMidYMid meet" version="1.0"><defs><clipPath id="6b65b6e69b"><path d="M 12 11 L 35.472656 11 L 35.472656 25 L 12 25 Z M 12 11 " clip-rule="nonzero"/></clipPath><clipPath id="5b85bc3d2f"><path d="M 7.347656 6.226562 L 35 6.226562 L 35 28 L 7.347656 28 Z M 7.347656 6.226562 " clip-rule="nonzero"/></clipPath><clipPath id="7d5b3afbe3"><path d="M 29 28 L 34 28 L 34 32.871094 L 29 32.871094 Z M 29 28 " clip-rule="nonzero"/></clipPath><clipPath id="567d830fc2"><path d="M 15 28 L 20 28 L 20 32.871094 L 15 32.871094 Z M 15 28 " clip-rule="nonzero"/></clipPath></defs><g clip-path="url(#6b65b6e69b)"><path fill="#000000" d="M 23.757812 11.140625 C 27.203125 11.140625 30.648438 11.140625 34.09375 11.136719 C 34.390625 11.136719 34.675781 11.152344 34.9375 11.316406 C 35.265625 11.519531 35.472656 11.9375 35.40625 12.316406 C 35.171875 13.667969 34.925781 15.015625 34.6875 16.371094 C 34.390625 18.050781 34.097656 19.730469 33.808594 21.410156 C 33.785156 21.546875 33.75 21.679688 33.714844 21.8125 C 33.578125 22.375 33.273438 22.65625 32.703125 22.703125 C 31.59375 22.796875 30.484375 22.867188 29.375 22.960938 C 28.191406 23.0625 27.007812 23.175781 25.820312 23.28125 C 25.316406 23.324219 24.808594 23.367188 24.304688 23.40625 C 23.097656 23.496094 21.890625 23.578125 20.683594 23.671875 C 19.183594 23.789062 17.6875 23.910156 16.191406 24.03125 C 15.820312 24.0625 15.453125 24.121094 15.085938 24.128906 C 14.558594 24.136719 14.1875 23.84375 14.082031 23.320312 C 13.910156 22.476562 13.765625 21.625 13.613281 20.777344 C 13.269531 18.867188 12.925781 16.957031 12.582031 15.046875 C 12.425781 14.179688 12.265625 13.3125 12.113281 12.441406 C 11.988281 11.726562 12.453125 11.167969 13.1875 11.144531 C 13.5 11.136719 13.8125 11.144531 14.128906 11.144531 Z M 19.5 16.089844 L 18.503906 16.089844 C 18.484375 16.089844 18.464844 16.089844 18.445312 16.089844 C 17.949219 16.089844 17.898438 16.027344 17.941406 16.589844 C 17.992188 17.257812 18.035156 17.921875 18.089844 18.585938 C 18.113281 18.875 18.179688 18.921875 18.460938 18.90625 C 18.925781 18.875 19.390625 18.84375 19.855469 18.808594 C 20.167969 18.785156 20.476562 18.75 20.785156 18.730469 C 20.988281 18.71875 21.128906 18.6875 21.046875 18.421875 C 21.011719 18.316406 21.035156 18.1875 21.035156 18.070312 C 21.023438 17.503906 21.011719 16.933594 21.011719 16.363281 C 21.011719 16.15625 20.921875 16.085938 20.726562 16.089844 C 20.320312 16.097656 19.910156 16.089844 19.5 16.089844 Z M 23.867188 12.433594 C 23.398438 12.433594 22.929688 12.4375 22.460938 12.429688 C 22.265625 12.429688 22.175781 12.496094 22.1875 12.703125 C 22.222656 13.367188 22.25 14.035156 22.28125 14.699219 C 22.285156 14.84375 22.367188 14.902344 22.507812 14.902344 C 22.742188 14.898438 22.976562 14.902344 23.207031 14.902344 C 23.851562 14.902344 24.496094 14.898438 25.140625 14.902344 C 25.320312 14.902344 25.449219 14.839844 25.453125 14.640625 C 25.46875 13.976562 25.480469 13.308594 25.488281 12.640625 C 25.488281 12.5 25.414062 12.429688 25.269531 12.429688 C 24.800781 12.4375 24.332031 12.433594 23.867188 12.433594 Z M 28.535156 12.433594 C 28.070312 12.433594 27.601562 12.4375 27.132812 12.433594 C 26.925781 12.429688 26.789062 12.496094 26.785156 12.726562 C 26.777344 13.375 26.769531 14.023438 26.757812 14.671875 C 26.753906 14.851562 26.847656 14.90625 27.011719 14.902344 C 27.90625 14.902344 28.804688 14.902344 29.703125 14.902344 C 29.832031 14.902344 29.929688 14.855469 29.941406 14.707031 C 29.988281 14.042969 30.035156 13.382812 30.085938 12.71875 C 30.101562 12.519531 30.027344 12.429688 29.824219 12.433594 C 29.394531 12.441406 28.964844 12.433594 28.535156 12.433594 Z M 19.285156 12.433594 C 18.816406 12.433594 18.347656 12.429688 17.878906 12.4375 C 17.597656 12.441406 17.578125 12.449219 17.597656 12.746094 C 17.632812 13.371094 17.691406 13.996094 17.738281 14.621094 C 17.753906 14.851562 17.890625 14.90625 18.097656 14.90625 C 18.933594 14.898438 19.773438 14.898438 20.613281 14.90625 C 20.835938 14.910156 20.929688 14.835938 20.925781 14.605469 C 20.910156 13.976562 20.894531 13.347656 20.898438 12.71875 C 20.898438 12.46875 20.777344 12.429688 20.570312 12.433594 C 20.144531 12.4375 19.714844 12.433594 19.285156 12.433594 Z M 23.882812 16.089844 C 23.453125 16.089844 23.023438 16.09375 22.59375 16.089844 C 22.414062 16.085938 22.292969 16.125 22.304688 16.34375 C 22.339844 17.050781 22.367188 17.757812 22.398438 18.464844 C 22.40625 18.601562 22.472656 18.675781 22.621094 18.667969 C 23.320312 18.628906 24.023438 18.59375 24.722656 18.550781 C 24.859375 18.542969 24.992188 18.5 25.128906 18.488281 C 25.304688 18.472656 25.347656 18.367188 25.347656 18.207031 C 25.355469 17.597656 25.355469 16.988281 25.378906 16.378906 C 25.386719 16.125 25.265625 16.085938 25.058594 16.089844 C 24.667969 16.097656 24.277344 16.089844 23.882812 16.089844 Z M 28.28125 16.089844 C 27.832031 16.089844 27.382812 16.09375 26.933594 16.089844 C 26.773438 16.089844 26.671875 16.132812 26.671875 16.320312 C 26.664062 16.949219 26.652344 17.578125 26.640625 18.207031 C 26.640625 18.386719 26.722656 18.441406 26.898438 18.429688 C 27.503906 18.390625 28.105469 18.363281 28.707031 18.324219 C 28.941406 18.308594 29.171875 18.265625 29.402344 18.25 C 29.550781 18.238281 29.609375 18.15625 29.628906 18.027344 C 29.652344 17.875 29.679688 17.71875 29.695312 17.566406 C 29.730469 17.175781 29.753906 16.78125 29.792969 16.394531 C 29.820312 16.136719 29.796875 16.097656 29.511719 16.09375 C 29.101562 16.085938 28.691406 16.089844 28.28125 16.089844 Z M 15.378906 16.089844 C 15.101562 16.089844 14.828125 16.085938 14.554688 16.089844 C 14.15625 16.097656 14.132812 16.105469 14.191406 16.484375 C 14.304688 17.261719 14.441406 18.035156 14.574219 18.804688 C 14.597656 18.945312 14.667969 19.070312 14.84375 19.066406 C 15.390625 19.046875 15.9375 19.039062 16.484375 19 C 16.773438 18.976562 16.804688 18.917969 16.789062 18.613281 C 16.746094 17.929688 16.6875 17.242188 16.632812 16.558594 C 16.628906 16.5 16.59375 16.445312 16.589844 16.386719 C 16.574219 16.175781 16.488281 16.070312 16.257812 16.085938 C 15.964844 16.105469 15.671875 16.089844 15.378906 16.089844 Z M 21.152344 21.167969 L 21.121094 21.167969 C 21.121094 20.832031 21.125 20.5 21.121094 20.164062 C 21.121094 19.964844 21.015625 19.890625 20.816406 19.921875 C 20.585938 19.953125 20.351562 19.964844 20.117188 19.980469 C 19.59375 20.019531 19.066406 20.058594 18.542969 20.082031 C 18.332031 20.09375 18.273438 20.1875 18.289062 20.378906 C 18.339844 21.027344 18.386719 21.671875 18.4375 22.320312 C 18.453125 22.523438 18.601562 22.511719 18.738281 22.503906 C 19.457031 22.457031 20.179688 22.398438 20.898438 22.359375 C 21.109375 22.347656 21.160156 22.242188 21.15625 22.054688 C 21.148438 21.757812 21.152344 21.464844 21.152344 21.167969 Z M 14.855469 12.433594 C 14.484375 12.433594 14.113281 12.441406 13.742188 12.433594 C 13.535156 12.425781 13.460938 12.511719 13.5 12.714844 C 13.613281 13.347656 13.734375 13.980469 13.839844 14.617188 C 13.878906 14.839844 13.996094 14.90625 14.199219 14.902344 C 14.863281 14.898438 15.523438 14.898438 16.1875 14.902344 C 16.398438 14.90625 16.453125 14.800781 16.4375 14.613281 C 16.386719 13.988281 16.339844 13.367188 16.296875 12.742188 C 16.28125 12.523438 16.183594 12.425781 15.964844 12.433594 C 15.59375 12.441406 15.222656 12.433594 14.855469 12.433594 Z M 25.257812 20.902344 C 25.257812 20.535156 25.261719 20.203125 25.257812 19.867188 C 25.257812 19.726562 25.195312 19.671875 25.039062 19.683594 C 24.492188 19.722656 23.945312 19.738281 23.398438 19.773438 C 23.148438 19.789062 22.898438 19.835938 22.644531 19.851562 C 22.460938 19.863281 22.417969 19.957031 22.421875 20.121094 C 22.433594 20.671875 22.4375 21.222656 22.449219 21.773438 C 22.453125 21.871094 22.460938 21.980469 22.507812 22.058594 C 22.550781 22.125 22.648438 22.199219 22.71875 22.195312 C 23.203125 22.175781 23.691406 22.144531 24.175781 22.09375 C 24.519531 22.058594 24.859375 21.984375 25.199219 21.925781 C 25.21875 21.574219 25.242188 21.222656 25.257812 20.902344 Z M 26.546875 20.773438 L 26.53125 20.773438 C 26.53125 21.027344 26.53125 21.285156 26.53125 21.539062 C 26.539062 21.878906 26.542969 21.894531 26.847656 21.871094 C 27.605469 21.808594 28.359375 21.730469 29.117188 21.660156 C 29.246094 21.648438 29.335938 21.605469 29.34375 21.453125 C 29.386719 20.90625 29.441406 20.359375 29.472656 19.8125 C 29.492188 19.464844 29.445312 19.433594 29.117188 19.464844 C 28.925781 19.484375 28.730469 19.5 28.535156 19.503906 C 28.125 19.523438 27.714844 19.511719 27.304688 19.546875 C 26.558594 19.617188 26.558594 19.625 26.546875 20.359375 C 26.546875 20.496094 26.550781 20.632812 26.550781 20.769531 Z M 32.773438 12.433594 C 32.460938 12.433594 32.148438 12.429688 31.835938 12.433594 C 31.488281 12.441406 31.464844 12.441406 31.421875 12.769531 C 31.34375 13.394531 31.300781 14.019531 31.238281 14.644531 C 31.222656 14.8125 31.285156 14.902344 31.464844 14.902344 C 32.09375 14.898438 32.71875 14.894531 33.34375 14.902344 C 33.558594 14.90625 33.660156 14.816406 33.695312 14.601562 C 33.800781 13.964844 33.917969 13.332031 34.03125 12.695312 C 34.0625 12.523438 34.015625 12.429688 33.832031 12.433594 C 33.476562 12.4375 33.125 12.433594 32.773438 12.433594 Z M 17.121094 22.289062 C 17.078125 21.722656 17.039062 21.152344 16.992188 20.585938 C 16.984375 20.507812 16.941406 20.433594 16.933594 20.355469 C 16.914062 20.183594 16.828125 20.128906 16.65625 20.140625 C 16.171875 20.179688 15.683594 20.207031 15.199219 20.238281 C 14.894531 20.257812 14.855469 20.292969 14.90625 20.59375 C 15.015625 21.25 15.140625 21.90625 15.253906 22.5625 C 15.285156 22.726562 15.363281 22.8125 15.53125 22.796875 C 15.941406 22.765625 16.347656 22.734375 16.757812 22.703125 C 17.140625 22.671875 17.140625 22.671875 17.121094 22.289062 Z M 32.292969 16.089844 C 31.980469 16.089844 31.667969 16.09375 31.355469 16.089844 C 31.183594 16.085938 31.117188 16.167969 31.105469 16.335938 C 31.0625 16.863281 31.011719 17.390625 30.964844 17.921875 C 30.945312 18.148438 30.996094 18.203125 31.207031 18.1875 C 31.519531 18.164062 31.828125 18.132812 32.140625 18.109375 C 32.375 18.09375 32.613281 18.109375 32.84375 18.078125 C 32.9375 18.0625 33.074219 17.964844 33.089844 17.882812 C 33.195312 17.386719 33.273438 16.882812 33.359375 16.378906 C 33.390625 16.183594 33.328125 16.082031 33.117188 16.089844 C 32.839844 16.097656 32.566406 16.089844 32.292969 16.089844 Z M 31.039062 21.527344 C 31.457031 21.488281 31.847656 21.449219 32.234375 21.417969 C 32.390625 21.402344 32.492188 21.335938 32.515625 21.171875 C 32.613281 20.59375 32.714844 20.015625 32.804688 19.433594 C 32.8125 19.386719 32.734375 19.285156 32.703125 19.285156 C 32.117188 19.3125 31.535156 19.347656 30.953125 19.386719 C 30.804688 19.398438 30.789062 19.527344 30.777344 19.652344 C 30.742188 20.121094 30.699219 20.589844 30.660156 21.058594 C 30.652344 21.15625 30.628906 21.261719 30.660156 21.351562 C 30.683594 21.421875 30.765625 21.492188 30.839844 21.523438 C 30.90625 21.554688 30.992188 21.527344 31.039062 21.527344 Z M 31.039062 21.527344 " fill-opacity="1" fill-rule="nonzero"/></g><g clip-path="url(#5b85bc3d2f)"><path fill="#000000" d="M 24.226562 27.929688 C 21.230469 27.929688 18.234375 27.921875 15.238281 27.933594 C 14.636719 27.9375 14.136719 27.761719 13.71875 27.320312 C 13.132812 26.699219 13.089844 25.714844 13.507812 24.957031 C 13.65625 24.679688 13.828125 24.414062 13.960938 24.132812 C 14.027344 23.992188 14.050781 23.84375 14.03125 23.691406 C 13.632812 21.429688 13.21875 19.175781 12.820312 16.914062 C 12.449219 14.828125 12.09375 12.742188 11.730469 10.652344 C 11.609375 9.957031 11.480469 9.261719 11.367188 8.566406 C 11.324219 8.300781 11.207031 8.160156 10.929688 8.113281 C 10.160156 7.988281 9.394531 7.835938 8.628906 7.691406 C 8.398438 7.648438 8.167969 7.617188 7.9375 7.566406 C 7.574219 7.488281 7.347656 7.183594 7.386719 6.847656 C 7.425781 6.496094 7.75 6.230469 8.144531 6.277344 C 8.628906 6.339844 9.105469 6.4375 9.585938 6.527344 C 10.429688 6.679688 11.269531 6.84375 12.117188 6.988281 C 12.320312 7.023438 12.417969 7.105469 12.453125 7.316406 C 12.546875 7.898438 12.667969 8.476562 12.769531 9.054688 C 13.082031 10.769531 13.394531 12.488281 13.695312 14.207031 C 14.070312 16.351562 14.429688 18.5 14.804688 20.644531 C 14.984375 21.6875 15.179688 22.730469 15.371094 23.769531 C 15.421875 24.042969 15.417969 24.289062 15.246094 24.539062 C 15.019531 24.878906 14.867188 25.273438 14.644531 25.617188 C 14.375 26.027344 14.617188 26.679688 15.238281 26.625 C 15.375 26.613281 15.515625 26.625 15.652344 26.625 L 33.160156 26.625 C 33.316406 26.625 33.472656 26.609375 33.628906 26.632812 C 33.800781 26.65625 33.941406 26.738281 34.050781 26.878906 C 34.15625 27.019531 34.203125 27.175781 34.183594 27.351562 C 34.152344 27.707031 33.945312 27.90625 33.570312 27.925781 C 33.414062 27.9375 33.253906 27.929688 33.097656 27.929688 Z M 24.226562 27.929688 " fill-opacity="1" fill-rule="nonzero"/></g><g clip-path="url(#7d5b3afbe3)"><path fill="#000000" d="M 29.355469 30.671875 C 29.273438 29.65625 30.242188 28.46875 31.488281 28.488281 C 32.671875 28.507812 33.65625 29.347656 33.675781 30.617188 C 33.691406 31.820312 32.867188 32.835938 31.511719 32.835938 C 30.101562 32.835938 29.304688 31.65625 29.355469 30.671875 Z M 31.53125 29.675781 C 30.945312 29.675781 30.515625 30.097656 30.527344 30.671875 C 30.535156 31.21875 30.996094 31.667969 31.558594 31.667969 C 32.015625 31.667969 32.519531 31.128906 32.515625 30.644531 C 32.507812 30.128906 32.050781 29.675781 31.527344 29.675781 Z M 31.53125 29.675781 " fill-opacity="1" fill-rule="nonzero"/></g><g clip-path="url(#567d830fc2)"><path fill="#000000" d="M 19.390625 30.675781 C 19.382812 31.867188 18.425781 32.859375 17.292969 32.855469 C 16.054688 32.847656 15.140625 31.886719 15.105469 30.636719 C 15.070312 29.476562 16.113281 28.46875 17.265625 28.480469 C 18.375 28.488281 19.492188 29.515625 19.390625 30.675781 Z M 18.21875 30.730469 C 18.242188 30.164062 17.871094 29.710938 17.355469 29.675781 C 16.761719 29.640625 16.320312 30.027344 16.285156 30.585938 C 16.246094 31.160156 16.628906 31.617188 17.210938 31.648438 C 17.339844 31.65625 17.464844 31.640625 17.585938 31.597656 C 17.707031 31.554688 17.8125 31.492188 17.910156 31.40625 C 18.003906 31.316406 18.078125 31.214844 18.132812 31.097656 C 18.183594 30.984375 18.214844 30.859375 18.21875 30.730469 Z M 18.21875 30.730469 " fill-opacity="1" fill-rule="nonzero"/></g></svg>