<svg xmlns="http://www.w3.org/2000/svg" xmlns:xlink="http://www.w3.org/1999/xlink" width="139" zoomAndPan="magnify" viewBox="0 0 104.25 75.749998" height="101" preserveAspectRatio="xMidYMid meet" version="1.0"><defs><clipPath id="08673e327a"><path d="M 18.886719 14.054688 L 84.414062 14.054688 L 84.414062 60.96875 L 18.886719 60.96875 Z M 18.886719 14.054688 " clip-rule="nonzero"/></clipPath></defs><g clip-path="url(#08673e327a)"><path fill="#000000" d="M 25.90625 14.0625 C 22.03125 14.0625 18.886719 17.207031 18.886719 21.097656 C 18.972656 31.765625 18.886719 43.054688 18.886719 53.925781 C 18.886719 57.667969 21.792969 60.699219 25.46875 60.921875 L 77.6875 60.957031 C 81.429688 60.808594 84.414062 57.71875 84.414062 53.925781 L 84.414062 19.886719 C 83.847656 16.570312 80.972656 14.0625 77.503906 14.0625 C 60.3125 14.070312 43.105469 14.0625 25.90625 14.0625 Z M 25.796875 17.761719 L 77.722656 17.761719 L 52.601562 42.933594 C 52.144531 43.390625 51.414062 43.390625 50.957031 42.933594 Z M 80.90625 19.558594 L 80.90625 53.667969 C 80.90625 55.699219 80.175781 56.847656 78.710938 57.257812 L 61.011719 39.488281 Z M 22.800781 19.703125 L 42.363281 39.304688 L 24.480469 57.222656 C 23.257812 56.808594 22.832031 55.820312 22.800781 54.472656 Z M 44.851562 41.761719 L 50.957031 47.914062 C 51.414062 48.375 52.144531 48.375 52.601562 47.914062 L 58.527344 41.980469 L 73.957031 57.441406 L 29.199219 57.441406 Z M 44.851562 41.761719 " fill-opacity="1" fill-rule="nonzero"/></g></svg>