<svg xmlns="http://www.w3.org/2000/svg" xmlns:xlink="http://www.w3.org/1999/xlink" width="139" zoomAndPan="magnify" viewBox="0 0 104.25 75.749998" height="101" preserveAspectRatio="xMidYMid meet" version="1.0"><defs><clipPath id="7aa3602716"><path d="M 13.664062 11.085938 L 90.253906 11.085938 L 90.253906 61.714844 L 13.664062 61.714844 Z M 13.664062 11.085938 " clip-rule="nonzero"/></clipPath></defs><g clip-path="url(#7aa3602716)"><path fill="#1a1a1a" d="M 20.023438 11.082031 L 83.894531 11.082031 C 85.585938 11.082031 87.191406 11.757812 88.386719 12.957031 C 89.582031 14.160156 90.253906 15.773438 90.253906 17.46875 L 90.253906 55.328125 C 90.253906 57.027344 89.582031 58.640625 88.386719 59.839844 C 87.191406 61.039062 85.585938 61.714844 83.894531 61.714844 L 20.023438 61.714844 C 18.335938 61.714844 16.726562 61.039062 15.53125 59.839844 C 14.335938 58.640625 13.664062 57.027344 13.664062 55.328125 L 13.664062 17.46875 C 13.664062 15.773438 14.335938 14.160156 15.53125 12.957031 C 16.726562 11.757812 18.335938 11.082031 20.023438 11.082031 Z M 83.894531 14.632812 L 20.023438 14.632812 C 19.273438 14.632812 18.5625 14.933594 18.03125 15.46875 C 17.5 16 17.199219 16.714844 17.199219 17.46875 L 17.199219 55.328125 C 17.199219 56.082031 17.5 56.796875 18.03125 57.332031 C 18.5625 57.863281 19.273438 58.167969 20.023438 58.167969 L 83.894531 58.167969 C 84.644531 58.167969 85.359375 57.863281 85.886719 57.332031 C 86.417969 56.796875 86.71875 56.082031 86.71875 55.328125 L 86.71875 17.46875 C 86.71875 16.714844 86.417969 16 85.886719 15.46875 C 85.359375 14.933594 84.644531 14.632812 83.894531 14.632812 " fill-opacity="1" fill-rule="evenodd"/></g><path fill="#1a1a1a" d="M 89.664062 22.199219 L 89.664062 31.539062 L 14.253906 31.539062 L 14.253906 21.015625 L 89.664062 21.015625 L 89.664062 22.199219 " fill-opacity="1" fill-rule="nonzero"/><path fill="#1a1a1a" d="M 26.859375 38.765625 C 27.714844 38.765625 28.535156 38.917969 29.300781 39.203125 C 29.367188 39.226562 29.433594 39.253906 29.5 39.28125 C 29.210938 39.503906 28.933594 39.746094 28.671875 40.007812 C 27.121094 41.566406 26.257812 43.660156 26.257812 45.863281 C 26.257812 48.066406 27.121094 50.164062 28.671875 51.722656 C 28.933594 51.984375 29.210938 52.226562 29.5 52.449219 C 29.433594 52.476562 29.367188 52.5 29.300781 52.527344 C 28.535156 52.808594 27.714844 52.964844 26.859375 52.964844 C 24.90625 52.964844 23.140625 52.167969 21.859375 50.882812 C 20.582031 49.597656 19.789062 47.824219 19.789062 45.863281 C 19.789062 43.90625 20.582031 42.128906 21.859375 40.84375 C 23.140625 39.558594 24.90625 38.765625 26.859375 38.765625 " fill-opacity="1" fill-rule="nonzero"/><path fill="#1a1a1a" d="M 29.503906 40.84375 C 30.785156 39.558594 32.550781 38.765625 34.503906 38.765625 C 36.457031 38.765625 38.226562 39.558594 39.503906 40.84375 C 40.78125 42.128906 41.574219 43.90625 41.574219 45.863281 C 41.574219 47.824219 40.78125 49.597656 39.503906 50.882812 C 38.226562 52.167969 36.457031 52.964844 34.503906 52.964844 C 32.550781 52.964844 30.785156 52.167969 29.503906 50.882812 C 28.226562 49.597656 27.433594 47.824219 27.433594 45.863281 C 27.433594 43.90625 28.226562 42.128906 29.503906 40.84375 " fill-opacity="1" fill-rule="nonzero"/><path fill="#1a1a1a" d="M 48.058594 44.089844 L 55.609375 44.089844 C 56.527344 44.089844 57.273438 44.886719 57.273438 45.863281 C 57.273438 46.84375 56.527344 47.640625 55.609375 47.640625 L 48.058594 47.640625 C 47.140625 47.640625 46.394531 46.84375 46.394531 45.863281 C 46.394531 44.886719 47.140625 44.089844 48.058594 44.089844 Z M 61.207031 44.089844 L 68.757812 44.089844 C 69.675781 44.089844 70.421875 44.886719 70.421875 45.863281 C 70.421875 46.84375 69.675781 47.640625 68.757812 47.640625 L 61.207031 47.640625 C 60.289062 47.640625 59.542969 46.84375 59.542969 45.863281 C 59.542969 44.886719 60.289062 44.089844 61.207031 44.089844 Z M 74.355469 44.089844 L 81.90625 44.089844 C 82.824219 44.089844 83.570312 44.886719 83.570312 45.863281 C 83.570312 46.84375 82.824219 47.640625 81.90625 47.640625 L 74.355469 47.640625 C 73.4375 47.640625 72.691406 46.84375 72.691406 45.863281 C 72.691406 44.886719 73.4375 44.089844 74.355469 44.089844 " fill-opacity="1" fill-rule="evenodd"/></svg>