<svg xmlns="http://www.w3.org/2000/svg" xmlns:xlink="http://www.w3.org/1999/xlink" width="167" zoomAndPan="magnify" viewBox="0 0 125.25 123.749996" height="165" preserveAspectRatio="xMidYMid meet" version="1.0"><defs><clipPath id="151ae02a9c"><path d="M 33 31.207031 L 92.617188 31.207031 L 92.617188 91 L 33 91 Z M 33 31.207031 " clip-rule="nonzero"/></clipPath></defs><g clip-path="url(#151ae02a9c)"><path fill="#000000" d="M 63.46875 31.304688 C 62.507812 31.296875 61.546875 31.335938 60.585938 31.421875 C 59.625 31.507812 58.671875 31.644531 57.726562 31.824219 C 56.78125 32.003906 55.84375 32.230469 54.921875 32.5 C 53.996094 32.773438 53.089844 33.089844 52.195312 33.453125 C 51.304688 33.816406 50.429688 34.21875 49.578125 34.667969 C 48.722656 35.113281 47.894531 35.601562 47.089844 36.132812 C 46.285156 36.660156 45.507812 37.230469 44.761719 37.835938 C 44.011719 38.441406 43.292969 39.082031 42.605469 39.757812 C 41.921875 40.433594 41.269531 41.140625 40.652344 41.882812 C 40.039062 42.625 39.460938 43.390625 38.917969 44.1875 C 38.378906 44.988281 37.878906 45.808594 37.417969 46.65625 C 36.957031 47.5 36.542969 48.367188 36.167969 49.257812 C 35.792969 50.144531 35.464844 51.046875 35.179688 51.96875 C 34.894531 52.886719 34.652344 53.820312 34.460938 54.765625 C 34.265625 55.707031 34.121094 56.660156 34.019531 57.617188 C 33.917969 58.574219 33.867188 59.535156 33.859375 60.5 C 33.855469 61.460938 33.898438 62.421875 33.988281 63.382812 C 34.074219 64.339844 34.210938 65.292969 34.394531 66.238281 C 34.578125 67.183594 34.808594 68.121094 35.082031 69.042969 C 35.355469 69.964844 35.675781 70.875 36.039062 71.765625 C 36.40625 72.65625 36.8125 73.527344 37.261719 74.382812 C 37.710938 75.234375 38.203125 76.058594 38.734375 76.863281 C 39.265625 77.667969 39.835938 78.441406 40.441406 79.191406 C 41.050781 79.9375 41.695312 80.652344 42.371094 81.335938 C 43.050781 82.019531 43.761719 82.671875 44.503906 83.285156 C 45.246094 83.898438 46.015625 84.472656 46.8125 85.011719 C 47.613281 85.550781 48.4375 86.050781 49.285156 86.507812 C 50.132812 86.964844 51 87.378906 51.890625 87.75 C 52.777344 88.121094 53.683594 88.449219 54.605469 88.730469 C 55.523438 89.015625 56.457031 89.25 57.402344 89.441406 C 58.34375 89.632812 59.296875 89.777344 60.253906 89.875 C 61.214844 89.972656 62.175781 90.023438 63.136719 90.023438 C 64.101562 90.027344 65.0625 89.984375 66.019531 89.890625 C 66.980469 89.800781 67.933594 89.660156 68.878906 89.476562 C 69.824219 89.289062 70.757812 89.058594 71.679688 88.78125 C 72.601562 88.503906 73.507812 88.179688 74.398438 87.8125 C 75.289062 87.445312 76.160156 87.039062 77.011719 86.585938 C 77.859375 86.132812 78.6875 85.640625 79.488281 85.105469 C 80.289062 84.570312 81.066406 84 81.808594 83.390625 C 82.554688 82.78125 83.269531 82.136719 83.953125 81.457031 C 84.632812 80.773438 85.28125 80.0625 85.894531 79.320312 C 86.503906 78.574219 87.078125 77.804688 87.617188 77.003906 C 88.152344 76.203125 88.648438 75.378906 89.101562 74.527344 C 89.558594 73.679688 89.96875 72.808594 90.339844 71.921875 C 90.707031 71.03125 91.03125 70.125 91.3125 69.203125 C 91.59375 68.28125 91.828125 67.347656 92.015625 66.402344 C 92.203125 65.457031 92.34375 64.507812 92.4375 63.546875 C 92.535156 62.589844 92.582031 61.628906 92.582031 60.664062 C 92.585938 59.707031 92.542969 58.753906 92.453125 57.800781 C 92.363281 56.847656 92.226562 55.898438 92.042969 54.960938 C 91.859375 54.019531 91.632812 53.089844 91.359375 52.171875 C 91.085938 51.257812 90.765625 50.355469 90.402344 49.46875 C 90.039062 48.582031 89.636719 47.714844 89.1875 46.867188 C 88.738281 46.023438 88.25 45.199219 87.722656 44.402344 C 87.195312 43.601562 86.628906 42.832031 86.023438 42.089844 C 85.417969 41.347656 84.78125 40.636719 84.105469 39.957031 C 83.433594 39.277344 82.726562 38.628906 81.988281 38.019531 C 81.25 37.410156 80.484375 36.835938 79.691406 36.300781 C 78.898438 35.765625 78.078125 35.269531 77.238281 34.816406 C 76.394531 34.359375 75.53125 33.949219 74.648438 33.578125 C 73.765625 33.207031 72.867188 32.882812 71.949219 32.601562 C 71.035156 32.316406 70.109375 32.082031 69.171875 31.890625 C 68.234375 31.699219 67.285156 31.554688 66.335938 31.457031 C 65.382812 31.359375 64.425781 31.308594 63.46875 31.304688 Z M 76.246094 61.339844 C 75.808594 61.773438 75.28125 61.992188 74.667969 61.996094 C 74.046875 62 73.515625 61.78125 73.078125 61.339844 L 65.714844 53.957031 L 65.714844 72.804688 C 65.765625 73.128906 65.746094 73.445312 65.65625 73.761719 C 65.566406 74.078125 65.414062 74.359375 65.199219 74.609375 C 64.988281 74.859375 64.730469 75.050781 64.433594 75.1875 C 64.136719 75.324219 63.824219 75.394531 63.496094 75.394531 C 63.167969 75.394531 62.855469 75.324219 62.558594 75.1875 C 62.261719 75.050781 62.003906 74.859375 61.792969 74.609375 C 61.578125 74.359375 61.425781 74.078125 61.335938 73.761719 C 61.246094 73.445312 61.226562 73.128906 61.277344 72.804688 L 61.277344 53.957031 L 53.886719 61.339844 C 53.449219 61.78125 52.921875 62 52.296875 61.996094 C 52 62 51.714844 61.945312 51.4375 61.835938 C 51.160156 61.726562 50.917969 61.566406 50.703125 61.359375 C 50.492188 61.148438 50.324219 60.910156 50.207031 60.636719 C 50.089844 60.363281 50.03125 60.074219 50.027344 59.777344 C 50.023438 59.148438 50.25 58.617188 50.703125 58.179688 L 61.898438 46.929688 C 62.328125 46.488281 62.851562 46.269531 63.46875 46.273438 C 64.085938 46.265625 64.605469 46.484375 65.03125 46.929688 L 76.253906 58.144531 C 76.464844 58.359375 76.628906 58.601562 76.742188 58.878906 C 76.855469 59.15625 76.910156 59.445312 76.910156 59.742188 C 76.910156 60.042969 76.855469 60.328125 76.742188 60.605469 C 76.628906 60.882812 76.464844 61.128906 76.253906 61.339844 Z M 76.246094 61.339844 " fill-opacity="1" fill-rule="nonzero"/></g></svg>