<svg xmlns="http://www.w3.org/2000/svg" xmlns:xlink="http://www.w3.org/1999/xlink" width="112" zoomAndPan="magnify" viewBox="0 0 84 86.999996" height="116" preserveAspectRatio="xMidYMid meet" version="1.0"><defs><clipPath id="52582db51b"><path d="M 9.609375 9.574219 L 75.609375 9.574219 L 75.609375 75.574219 L 9.609375 75.574219 Z M 9.609375 9.574219 " clip-rule="nonzero"/></clipPath><clipPath id="0eb236d67c"><path d="M 17 48 L 68 48 L 68 75.574219 L 17 75.574219 Z M 17 48 " clip-rule="nonzero"/></clipPath></defs><g clip-path="url(#52582db51b)"><path fill="#b3b3b3" d="M 75.613281 42.574219 C 75.613281 51.015625 72.445312 58.71875 67.226562 64.554688 C 61.1875 71.320312 52.398438 75.574219 42.613281 75.574219 C 32.828125 75.574219 24.035156 71.320312 17.996094 64.554688 C 12.777344 58.71875 9.609375 51.015625 9.609375 42.574219 C 9.609375 24.351562 24.382812 9.574219 42.613281 9.574219 C 60.835938 9.574219 75.613281 24.351562 75.613281 42.574219 " fill-opacity="1" fill-rule="nonzero"/></g><path fill="#f2f2f2" d="M 42.613281 48.652344 C 48.59375 48.652344 54.039062 41.886719 54.039062 34.457031 C 54.039062 27.4375 52.683594 20.492188 42.613281 20.492188 C 32.539062 20.492188 31.179688 27.4375 31.179688 34.457031 C 31.179688 41.886719 36.628906 48.652344 42.613281 48.652344 " fill-opacity="1" fill-rule="nonzero"/><g clip-path="url(#0eb236d67c)"><path fill="#f2f2f2" d="M 67.226562 64.554688 C 61.1875 71.320312 52.398438 75.574219 42.613281 75.574219 C 32.828125 75.574219 24.035156 71.320312 17.996094 64.554688 C 17.890625 60.476562 20.605469 51.035156 34.449219 48.128906 C 36.816406 50.542969 39.730469 51.910156 42.613281 51.910156 C 45.492188 51.910156 48.402344 50.542969 50.769531 48.128906 C 64.617188 51.035156 67.328125 60.476562 67.226562 64.554688 " fill-opacity="1" fill-rule="nonzero"/></g></svg>