<svg xmlns="http://www.w3.org/2000/svg" xmlns:xlink="http://www.w3.org/1999/xlink" width="82" zoomAndPan="magnify" viewBox="0 0 61.5 58.499998" height="78" preserveAspectRatio="xMidYMid meet" version="1.0"><defs><clipPath id="972aaa68c3"><path d="M 5.542969 4.910156 L 53.136719 4.910156 L 53.136719 54 L 5.542969 54 Z M 5.542969 4.910156 " clip-rule="nonzero"/></clipPath><clipPath id="d7a0d865c0"><path d="M 15 39 L 44 39 L 44 57.710938 L 15 57.710938 Z M 15 39 " clip-rule="nonzero"/></clipPath></defs><g clip-path="url(#972aaa68c3)"><path fill="#eec124" d="M 53.136719 28.960938 C 53.136719 42.238281 42.484375 53.003906 29.347656 53.003906 C 16.207031 53.003906 5.554688 42.238281 5.554688 28.960938 C 5.554688 15.683594 16.207031 4.917969 29.347656 4.917969 C 42.484375 4.917969 53.136719 15.683594 53.136719 28.960938 " fill-opacity="1" fill-rule="nonzero"/></g><path fill="#3f2463" d="M 39.875 24.378906 C 39.875 24.378906 38.667969 36.421875 42.757812 36.574219 C 42.757812 36.574219 39.011719 43.3125 29.574219 42.007812 L 29.574219 23.105469 L 39.875 24.378906 " fill-opacity="1" fill-rule="nonzero"/><path fill="#3f2463" d="M 19.578125 24.378906 C 19.578125 24.378906 20.789062 36.421875 16.695312 36.574219 C 16.695312 36.574219 20.441406 43.3125 29.878906 42.007812 L 29.878906 23.105469 L 19.578125 24.378906 " fill-opacity="1" fill-rule="nonzero"/><g clip-path="url(#d7a0d865c0)"><path fill="#ffffff" d="M 43.226562 53.066406 C 42.050781 53.957031 40.785156 54.734375 39.453125 55.382812 C 39.25 55.484375 39.042969 55.578125 38.839844 55.671875 C 35.941406 56.984375 32.726562 57.714844 29.347656 57.714844 C 25.964844 57.714844 22.75 56.984375 19.855469 55.671875 C 19.644531 55.578125 19.441406 55.484375 19.242188 55.382812 C 17.90625 54.730469 16.644531 53.957031 15.46875 53.066406 C 15.671875 48.421875 18.117188 44.359375 21.734375 41.964844 C 23.921875 40.515625 26.535156 39.671875 29.347656 39.671875 C 29.773438 39.671875 30.199219 39.691406 30.617188 39.730469 C 32.945312 39.941406 35.105469 40.734375 36.957031 41.964844 C 38.621094 43.066406 40.039062 44.523438 41.101562 46.226562 C 42.351562 48.222656 43.113281 50.5625 43.226562 53.066406 " fill-opacity="1" fill-rule="nonzero"/></g><path fill="#f79b68" d="M 36.957031 41.964844 C 36.746094 43.585938 36.035156 45.050781 34.988281 46.195312 C 33.585938 47.730469 31.578125 48.691406 29.347656 48.691406 C 25.769531 48.691406 22.765625 46.222656 21.910156 42.875 C 21.835938 42.578125 21.777344 42.273438 21.734375 41.964844 C 23.921875 40.515625 26.535156 39.671875 29.347656 39.671875 C 29.773438 39.671875 30.199219 39.691406 30.617188 39.730469 C 30.691406 39.734375 30.761719 39.742188 30.832031 39.75 C 30.878906 39.757812 30.925781 39.761719 30.96875 39.765625 C 31.019531 39.769531 31.066406 39.777344 31.117188 39.785156 C 31.148438 39.789062 31.179688 39.792969 31.210938 39.796875 C 31.253906 39.800781 31.296875 39.808594 31.34375 39.816406 C 31.378906 39.820312 31.414062 39.828125 31.449219 39.832031 C 31.480469 39.835938 31.511719 39.839844 31.539062 39.847656 C 31.59375 39.855469 31.640625 39.863281 31.695312 39.871094 C 31.914062 39.910156 32.132812 39.953125 32.351562 40 L 32.496094 40.03125 C 32.523438 40.039062 32.550781 40.046875 32.578125 40.054688 C 32.632812 40.066406 32.683594 40.078125 32.734375 40.09375 C 32.742188 40.09375 32.75 40.097656 32.757812 40.097656 C 32.824219 40.113281 32.886719 40.132812 32.949219 40.148438 C 33.019531 40.167969 33.089844 40.1875 33.15625 40.207031 C 33.234375 40.226562 33.308594 40.25 33.386719 40.273438 C 33.445312 40.292969 33.503906 40.308594 33.5625 40.332031 C 33.601562 40.34375 33.640625 40.355469 33.675781 40.367188 C 33.738281 40.386719 33.800781 40.40625 33.863281 40.429688 C 33.9375 40.457031 34.011719 40.480469 34.085938 40.507812 C 34.089844 40.511719 34.097656 40.515625 34.101562 40.515625 C 34.179688 40.542969 34.253906 40.570312 34.328125 40.601562 C 34.386719 40.625 34.441406 40.644531 34.5 40.671875 C 34.652344 40.730469 34.796875 40.792969 34.941406 40.855469 L 35.132812 40.945312 C 35.191406 40.96875 35.25 40.996094 35.308594 41.023438 C 35.359375 41.050781 35.410156 41.074219 35.460938 41.101562 C 35.511719 41.125 35.558594 41.148438 35.605469 41.171875 C 35.636719 41.1875 35.667969 41.203125 35.699219 41.222656 C 35.824219 41.285156 35.945312 41.351562 36.066406 41.421875 C 36.109375 41.445312 36.15625 41.46875 36.199219 41.496094 C 36.226562 41.511719 36.253906 41.527344 36.28125 41.542969 L 36.386719 41.605469 L 36.488281 41.667969 L 36.558594 41.710938 C 36.621094 41.746094 36.6875 41.789062 36.75 41.828125 C 36.820312 41.875 36.886719 41.917969 36.957031 41.964844 " fill-opacity="1" fill-rule="nonzero"/><path fill="#f79b68" d="M 32.019531 36.527344 L 32.019531 41.84375 C 32.019531 43.191406 30.933594 44.292969 29.601562 44.292969 L 29.089844 44.292969 C 27.761719 44.292969 26.671875 43.191406 26.671875 41.84375 L 26.671875 36.527344 C 26.671875 35.179688 27.761719 34.078125 29.089844 34.078125 L 29.601562 34.078125 C 30.933594 34.078125 32.019531 35.179688 32.019531 36.527344 " fill-opacity="1" fill-rule="nonzero"/><path fill="#f4716d" d="M 32.019531 36.527344 L 32.019531 39.339844 C 31.226562 39.785156 30.382812 40.046875 29.527344 40.046875 C 28.515625 40.046875 27.550781 39.761719 26.671875 39.269531 L 26.671875 36.527344 C 26.671875 35.179688 27.761719 34.078125 29.089844 34.078125 L 29.601562 34.078125 C 30.933594 34.078125 32.019531 35.179688 32.019531 36.527344 " fill-opacity="1" fill-rule="nonzero"/><path fill="#f79b68" d="M 37.59375 33.226562 C 37.59375 33.226562 39.179688 32.683594 40.191406 30.898438 C 41.289062 28.960938 40.597656 27.753906 40.382812 27.492188 C 39.785156 26.777344 38.867188 27.234375 38.714844 27.492188 C 38.5625 27.746094 36.371094 31.773438 37.59375 33.226562 " fill-opacity="1" fill-rule="nonzero"/><path fill="#f4716d" d="M 39.148438 28.125 C 39.148438 28.125 40.152344 28.257812 39.800781 29.683594 C 39.445312 31.113281 38.515625 31.679688 37.253906 32.410156 C 35.992188 33.140625 37.886719 28.417969 39.148438 28.125 " fill-opacity="1" fill-rule="nonzero"/><path fill="#f79b68" d="M 21.507812 33.226562 C 21.507812 33.226562 19.925781 32.683594 18.914062 30.898438 C 17.8125 28.960938 18.503906 27.753906 18.722656 27.492188 C 19.316406 26.777344 20.234375 27.234375 20.386719 27.492188 C 20.539062 27.746094 22.734375 31.773438 21.507812 33.226562 " fill-opacity="1" fill-rule="nonzero"/><path fill="#f4716d" d="M 19.957031 28.125 C 19.957031 28.125 18.953125 28.257812 19.304688 29.683594 C 19.65625 31.113281 20.585938 31.679688 21.847656 32.410156 C 23.113281 33.140625 21.21875 28.417969 19.957031 28.125 " fill-opacity="1" fill-rule="nonzero"/><path fill="#f79b68" d="M 39.148438 27.183594 C 39.148438 21.316406 34.859375 16.558594 29.574219 16.558594 C 24.285156 16.558594 19.996094 21.316406 19.996094 27.183594 C 19.996094 33.050781 24.285156 39.183594 29.574219 39.183594 C 34.542969 39.183594 39.148438 33 39.148438 27.183594 " fill-opacity="1" fill-rule="nonzero"/><path fill="#3f2463" d="M 30.433594 22.898438 C 30.433594 22.898438 32.234375 28.753906 39.011719 28.171875 C 39.011719 28.171875 40.195312 26.445312 39.792969 22.6875 C 39.34375 18.453125 35.628906 14.886719 29.574219 16.164062 C 29.574219 16.164062 29.019531 19.175781 30.433594 22.898438 " fill-opacity="1" fill-rule="nonzero"/><path fill="#3f2463" d="M 30.738281 16.558594 C 30.738281 16.558594 30.988281 15.449219 30.082031 14.582031 C 29.171875 13.714844 17.136719 15.496094 19.996094 27.183594 C 19.996094 27.183594 22.804688 20.195312 30.230469 19.582031 L 30.738281 16.558594 " fill-opacity="1" fill-rule="nonzero"/></svg>